# xmcd
#
# Track frame offsets:
# 150
# 20425
# 38360
# 53525
# 68165
# 82712
# 95637
# 111415
# 126800
# 146590
# 165930
# 185722
# 202195
#
# Disc length: 2806 seconds
#
#
# Revision: 0
# Processed by: cddbd v1.5.2PL0 Copyright (c) Steve Scherf et al.
# Submitted via: FreeRIP 2.96 
#
DISCID=a80af40d
DTITLE=Paulo Simões - Vida Bela Vida
DYEAR=1900
DGENRE=Alternative
TTITLE0=Vida, Bela Vida
TTITLE1=Trem da Solidão
TTITLE2=Estranhas Coincidências
TTITLE3=Bolha de Sabão
TTITLE4=Boa Terra
TTITLE5=Trem do Pantanal
TTITLE6=Comitiva Esperança
TTITLE7=Sonhos Guaranis
TTITLE8=Labaredas
TTITLE9=Peña
TTITLE10=Ordem Natural das Coisas(Olhos Nus)
TTITLE11=Vaso Quebrado
TTITLE12=Velhos Amigos
EXTD=
EXTT0=
EXTT1=
EXTT2=
EXTT3=
EXTT4=
EXTT5=
EXTT6=
EXTT7=
EXTT8=
EXTT9=
EXTT10=
EXTT11=
EXTT12=
PLAYORDER=
